<?xml version="1.0" encoding="utf-8"?>
<!-- Generator: Adobe Illustrator 17.0.0, SVG Export Plug-In . SVG Version: 6.00 Build 0)  -->
<!DOCTYPE svg PUBLIC "-//W3C//DTD SVG 1.1//EN" "http://www.w3.org/Graphics/SVG/1.1/DTD/svg11.dtd">
<svg version="1.1" id="Layer_1" xmlns="http://www.w3.org/2000/svg" xmlns:xlink="http://www.w3.org/1999/xlink" x="0px" y="0px"
	 width="252px" height="75.6px" viewBox="0 0 252 75.6" enable-background="new 0 0 252 75.6" xml:space="preserve">
<g>
	<path fill="none" d="M65.71,38.895c-0.317,0.778-0.672,1.555-1.064,2.334h1.12c0.382-0.778,0.724-1.556,1.035-2.334H65.71z"/>
	<g>
		<g>
			<path fill="#343A40" d="M50.012,52.994c-12.704,9.76-28.071,11.077-34.322,2.94c-2.812-3.661-3.282-8.613-1.812-13.84
				c-2.328,6.368-2.077,12.525,1.316,16.941c6.743,8.777,23.318,7.357,37.022-3.171c5.593-4.297,9.814-9.447,12.428-14.635h-4.087
				C58.11,45.417,54.548,49.509,50.012,52.994z"/>
			<path fill="#20C997" d="M64.821,20.909c-3.393-4.416-9.276-6.245-16.029-5.637c5.429-0.074,10.093,1.657,12.905,5.317
				c3.606,4.693,3.372,11.507,0.106,18.306h3.906C68.46,32.16,68.399,25.566,64.821,20.909z"/>
			<path fill="#20C997" d="M10.754,59.76c5.475,7.127,16.523,8.423,27.994,4.35c-10.141,3.247-19.752,1.884-24.61-4.439
				c-3.697-4.813-3.887-11.548-1.243-18.443H8.879C6.583,48.185,7.008,54.884,10.754,59.76z"/>
			<path fill="#343A40" d="M66.666,16.805C58.952,6.764,40.183,8.24,24.743,20.102C17.638,25.56,12.507,32.266,9.756,38.895h4.138
				c2.663-5.606,7.14-11.188,13.146-15.802c14.241-10.94,31.553-12.302,38.668-3.041c3.769,4.906,3.901,11.809,1.091,18.843h0.026
				C70.595,30.705,71.05,22.511,66.666,16.805z"/>
		</g>
		<g>
			<path fill="#20C997" d="M16.877,38.895h8.117v-8.32h-4.146c-1.508,1.734-2.827,3.545-3.971,5.4V38.895z"/>
			<rect x="27.428" y="30.575" fill="#343A40" width="8.117" height="8.32"/>
			<rect x="37.98" y="30.575" fill="#20C997" width="8.117" height="8.32"/>
			<rect x="48.532" y="30.575" fill="#343A40" width="8.117" height="8.32"/>
			<rect x="16.877" y="41.228" fill="#343A40" width="8.117" height="8.32"/>
			<rect x="27.428" y="41.228" fill="#20C997" width="8.117" height="8.32"/>
			<rect x="37.98" y="41.228" fill="#343A40" width="8.117" height="8.32"/>
			<path fill="#20C997" d="M56.649,44.79v-3.562h-8.117v8.32h3.658C53.834,48.043,55.331,46.451,56.649,44.79z"/>
			<path fill="#FFFFFF" d="M31.096,36.566v-3.509h0.782v3.509H31.096z"/>
			<path fill="#FFFFFF" d="M41.281,36.566c-1.033,0-1.337-0.319-1.337-1.204v-1.101c0-0.885,0.304-1.204,1.337-1.204h1.042
				c1.039,0,1.344,0.319,1.344,1.204v1.101c0,0.885-0.304,1.204-1.344,1.204H41.281z M42.885,34.296
				c0-0.437-0.134-0.566-0.592-0.566h-0.975c-0.494,0-0.597,0.128-0.597,0.566v1.036c0,0.457,0.103,0.566,0.597,0.566h0.975
				c0.457,0,0.592-0.108,0.592-0.566V34.296z"/>
			<path fill="#FFFFFF" d="M20.411,36.566c-1.033,0-1.337-0.319-1.337-1.204v-1.101c0-0.885,0.304-1.204,1.337-1.204h1.042
				c1.039,0,1.344,0.319,1.344,1.204v1.101c0,0.885-0.304,1.204-1.344,1.204H20.411z M22.015,34.296
				c0-0.437-0.134-0.566-0.592-0.566h-0.975c-0.494,0-0.597,0.128-0.597,0.566v1.036c0,0.457,0.103,0.566,0.597,0.566h0.975
				c0.457,0,0.592-0.108,0.592-0.566V34.296z"/>
			<path fill="#FFFFFF" d="M41.281,47.143c-1.033,0-1.337-0.319-1.337-1.204v-1.101c0-0.885,0.304-1.204,1.337-1.204h1.042
				c1.039,0,1.344,0.319,1.344,1.204v1.101c0,0.885-0.304,1.204-1.344,1.204H41.281z M42.885,44.873
				c0-0.437-0.134-0.566-0.592-0.566h-0.975c-0.494,0-0.597,0.128-0.597,0.566v1.036c0,0.457,0.103,0.566,0.597,0.566h0.975
				c0.457,0,0.592-0.108,0.592-0.566V44.873z"/>
			<path fill="#FFFFFF" d="M20.411,47.143c-1.033,0-1.337-0.319-1.337-1.204v-1.101c0-0.885,0.304-1.204,1.337-1.204h1.042
				c1.039,0,1.344,0.319,1.344,1.204v1.101c0,0.885-0.304,1.204-1.344,1.204H20.411z M22.015,44.873
				c0-0.437-0.134-0.566-0.592-0.566h-0.975c-0.494,0-0.597,0.128-0.597,0.566v1.036c0,0.457,0.103,0.566,0.597,0.566h0.975
				c0.457,0,0.592-0.108,0.592-0.566V44.873z"/>
			<path fill="#FFFFFF" d="M51.966,36.566v-3.509h0.782v3.509H51.966z"/>
			<path fill="#FFFFFF" d="M31.096,47.143v-3.509h0.782v3.509H31.096z"/>
			<path fill="#FFFFFF" d="M51.966,47.143v-3.509h0.782v3.509H51.966z"/>
		</g>
	</g>
	<g>
		<g>
			<path fill="#20C997" d="M97.604,39.823c1.14-0.318,1.962-1.087,1.962-3.209v-1.485c0-3.024-1.591-4.111-5.702-4.111h-15.25v3.289
				h14.932c1.697,0,2.254,0.345,2.254,1.432v1.14c0,1.193-0.451,1.592-1.857,1.592h-15.33v10.635h15.515
				c4.111,0,5.676-1.061,5.676-3.926v-1.591C99.805,40.91,98.903,40.088,97.604,39.823z M96.039,44.358
				c0,1.114-0.61,1.458-2.122,1.458H82.645v-4.429H94.05c1.459,0,1.989,0.372,1.989,1.857V44.358z"/>
			<path fill="#20C997" d="M110.042,49.106v-8.54l-10.609-9.548h5.437l7.294,6.445l7.426-6.445h5.145l-10.662,9.601v8.487H110.042z"
				/>
			<path fill="#20C997" d="M132.956,49.106V34.492h-7.585v-3.475h19.228v3.475h-7.585v14.613H132.956z"/>
			<rect x="146.89" y="31.018" fill="#20C997" width="19.192" height="3.421"/>
			<rect x="146.89" y="45.672" fill="#20C997" width="19.192" height="3.421"/>
			<rect x="146.89" y="38.444" fill="#20C997" width="19.086" height="3.209"/>
		</g>
		<g>
			<path fill="#343A40" d="M186.302,48.655l-13.182-12.413v12.863h-3.74V32.291c0-1.141,0.876-1.671,2.148-1.671
				c0.902,0,1.486,0.265,1.883,0.663l13.288,12.81V31.018h3.819v16.815c0,1.194-0.822,1.671-2.016,1.671
				C187.655,49.503,186.938,49.265,186.302,48.655z"/>
			<path fill="#343A40" d="M202.745,49.106v-8.54l-10.609-9.548h5.437l7.294,6.445l7.426-6.445h5.145l-10.662,9.601v8.487H202.745z"
				/>
			<polygon fill="#343A40" points="231.07,37.436 224.174,31.018 218.366,31.018 228.179,39.744 217.782,49.106 223.405,49.106 
				230.831,42.184 233.499,39.697 			"/>
			<polygon fill="#343A40" points="234.796,39.717 244.637,31.018 239.146,31.018 231.879,37.436 234.308,39.697 231.641,42.184 
				239.094,49.106 244.955,49.106 			"/>
		</g>
	</g>
</g>
</svg>
