<?xml version="1.0" encoding="utf-8"?>
<svg version="1.1" id="Layer_1" x="0px" y="0px" width="252px" height="54px" viewBox="4.364 6.256 51.797 44.689" enable-background="new 0 0 252 54" xmlns="http://www.w3.org/2000/svg">
  <g>
    <g>
      <path fill="#20C997" d="M13.345,28.478h6.079v-6.23h-3.105c-1.129,1.298-2.117,2.655-2.974,4.044V28.478z"/>
      <rect x="21.247" y="22.247" fill="#343A40" width="6.079" height="6.23"/>
      <rect x="29.15" y="22.247" fill="#20C997" width="6.079" height="6.23"/>
      <rect x="37.052" y="22.247" fill="#343A40" width="6.079" height="6.23"/>
      <rect x="13.345" y="30.225" fill="#343A40" width="6.079" height="6.23"/>
      <rect x="21.247" y="30.225" fill="#20C997" width="6.079" height="6.23"/>
      <rect x="29.15" y="30.225" fill="#343A40" width="6.079" height="6.23"/>
      <path fill="#20C997" d="M43.13,32.893v-2.668h-6.079v6.231h2.74C41.022,35.329,42.143,34.137,43.13,32.893z"/>
      <path fill="none" d="M49.916,28.478c-0.238,0.582-0.503,1.164-0.797,1.748h0.839c0.286-0.583,0.542-1.165,0.775-1.748H49.916z"/>
      <path fill="#343A40" d="M38.16,39.036c-9.514,7.309-21.022,8.295-25.703,2.202c-2.106-2.741-2.458-6.45-1.357-10.365 c-1.743,4.769-1.555,9.38,0.985,12.687c5.05,6.573,17.463,5.509,27.725-2.375c4.188-3.218,7.35-7.075,9.307-10.96h-3.061 C44.224,33.362,41.557,36.427,38.16,39.036z"/>
      <path fill="#20C997" d="M49.25,15.008c-2.541-3.307-6.947-4.677-12.004-4.222c4.066-0.055,7.559,1.241,9.665,3.982 c2.7,3.515,2.525,8.617,0.079,13.709h2.925C51.976,23.434,51.93,18.496,49.25,15.008z"/>
      <path fill="#20C997" d="M8.761,44.103c4.1,5.337,12.374,6.308,20.964,3.258c-7.594,2.432-14.792,1.411-18.43-3.324 c-2.769-3.604-2.911-8.648-0.931-13.812H7.357C5.636,35.435,5.955,40.452,8.761,44.103z"/>
      <path fill="#343A40" d="M50.632,11.935c-5.777-7.519-19.833-6.414-31.396,2.469c-5.321,4.088-9.163,9.11-11.223,14.074h3.099 c1.994-4.199,5.347-8.378,9.845-11.834c10.665-8.193,23.629-9.213,28.958-2.277c2.823,3.674,2.922,8.844,0.817,14.111h0.019 C53.574,22.345,53.915,16.208,50.632,11.935z"/>
      <path fill="#FFFFFF" d="M15.87,26.734c-0.774,0-1.001-0.239-1.001-0.902v-0.825c0-0.663,0.228-0.902,1.001-0.902h1.025 c0.778,0,1.006,0.239,1.006,0.902v0.825c0,0.663-0.228,0.902-1.006,0.902H15.87z M17.316,25.034c0-0.328-0.101-0.424-0.443-0.424 h-0.975c-0.37,0-0.447,0.096-0.447,0.424v0.776c0,0.343,0.077,0.424,0.447,0.424h0.975c0.343,0,0.443-0.081,0.443-0.424V25.034z"/>
      <path fill="#FFFFFF" d="M23.994,26.734v-2.628h0.585v2.628H23.994z"/>
      <path fill="#FFFFFF" d="M31.499,26.734c-0.774,0-1.001-0.239-1.001-0.902v-0.825c0-0.663,0.228-0.902,1.001-0.902h1.025 c0.778,0,1.006,0.239,1.006,0.902v0.825c0,0.663-0.228,0.902-1.006,0.902H31.499z M32.945,25.034c0-0.328-0.101-0.424-0.443-0.424 h-0.975c-0.37,0-0.447,0.096-0.447,0.424v0.776c0,0.343,0.077,0.424,0.447,0.424h0.975c0.343,0,0.443-0.081,0.443-0.424V25.034z"/>
      <path fill="#FFFFFF" d="M39.623,26.734v-2.628h0.585v2.628H39.623z"/>
      <path fill="#FFFFFF" d="M15.87,34.654c-0.774,0-1.001-0.239-1.001-0.902v-0.825c0-0.663,0.228-0.902,1.001-0.902h1.025 c0.778,0,1.006,0.239,1.006,0.902v0.825c0,0.663-0.228,0.902-1.006,0.902H15.87z M17.316,32.955c0-0.328-0.101-0.424-0.443-0.424 h-0.975c-0.37,0-0.447,0.096-0.447,0.424v0.776c0,0.343,0.077,0.424,0.447,0.424h0.975c0.343,0,0.443-0.081,0.443-0.424V32.955z"/>
      <path fill="#FFFFFF" d="M23.994,34.654v-2.628h0.585v2.628H23.994z"/>
      <path fill="#FFFFFF" d="M31.499,34.654c-0.774,0-1.001-0.239-1.001-0.902v-0.825c0-0.663,0.228-0.902,1.001-0.902h1.025 c0.778,0,1.006,0.239,1.006,0.902v0.825c0,0.663-0.228,0.902-1.006,0.902H31.499z M32.945,32.955c0-0.328-0.101-0.424-0.443-0.424 h-0.975c-0.37,0-0.447,0.096-0.447,0.424v0.776c0,0.343,0.077,0.424,0.447,0.424h0.975c0.343,0,0.443-0.081,0.443-0.424V32.955z"/>
      <path fill="#FFFFFF" d="M39.623,34.654v-2.628h0.585v2.628H39.623z"/>
    </g>
    <g>
      <g/>
    </g>
  </g>
</svg>