<?xml version="1.0" encoding="utf-8"?>
<!-- Generator: Adobe Illustrator 17.0.0, SVG Export Plug-In . SVG Version: 6.00 Build 0)  -->
<!DOCTYPE svg PUBLIC "-//W3C//DTD SVG 1.1//EN" "http://www.w3.org/Graphics/SVG/1.1/DTD/svg11.dtd">
<svg version="1.1" id="Layer_1" xmlns="http://www.w3.org/2000/svg" xmlns:xlink="http://www.w3.org/1999/xlink" x="0px" y="0px"
	 width="252px" height="54px" viewBox="0 0 252 54" enable-background="new 0 0 252 54" xml:space="preserve">
<g>
	<g>
		<path fill="#20C997" d="M13.345,28.478h6.079v-6.23h-3.105c-1.129,1.298-2.117,2.655-2.974,4.044V28.478z"/>
		<rect x="21.247" y="22.247" fill="#343A40" width="6.079" height="6.23"/>
		<rect x="29.15" y="22.247" fill="#20C997" width="6.079" height="6.23"/>
		<rect x="37.052" y="22.247" fill="#343A40" width="6.079" height="6.23"/>
		<rect x="13.345" y="30.225" fill="#343A40" width="6.079" height="6.23"/>
		<rect x="21.247" y="30.225" fill="#20C997" width="6.079" height="6.23"/>
		<rect x="29.15" y="30.225" fill="#343A40" width="6.079" height="6.23"/>
		<path fill="#20C997" d="M43.13,32.893v-2.668h-6.079v6.231h2.74C41.022,35.329,42.143,34.137,43.13,32.893z"/>
		<path fill="none" d="M49.916,28.478c-0.238,0.582-0.503,1.164-0.797,1.748h0.839c0.286-0.583,0.542-1.165,0.775-1.748H49.916z"/>
		<path fill="#343A40" d="M38.16,39.036c-9.514,7.309-21.022,8.295-25.703,2.202c-2.106-2.741-2.458-6.45-1.357-10.365
			c-1.743,4.769-1.555,9.38,0.985,12.687c5.05,6.573,17.463,5.509,27.725-2.375c4.188-3.218,7.35-7.075,9.307-10.96h-3.061
			C44.224,33.362,41.557,36.427,38.16,39.036z"/>
		<path fill="#20C997" d="M49.25,15.008c-2.541-3.307-6.947-4.677-12.004-4.222c4.066-0.055,7.559,1.241,9.665,3.982
			c2.7,3.515,2.525,8.617,0.079,13.709h2.925C51.976,23.434,51.93,18.496,49.25,15.008z"/>
		<path fill="#20C997" d="M8.761,44.103c4.1,5.337,12.374,6.308,20.964,3.258c-7.594,2.432-14.792,1.411-18.43-3.324
			c-2.769-3.604-2.911-8.648-0.931-13.812H7.357C5.636,35.435,5.955,40.452,8.761,44.103z"/>
		<path fill="#343A40" d="M50.632,11.935c-5.777-7.519-19.833-6.414-31.396,2.469c-5.321,4.088-9.163,9.11-11.223,14.074h3.099
			c1.994-4.199,5.347-8.378,9.845-11.834c10.665-8.193,23.629-9.213,28.958-2.277c2.823,3.674,2.922,8.844,0.817,14.111h0.019
			C53.574,22.345,53.915,16.208,50.632,11.935z"/>
		<path fill="#FFFFFF" d="M15.87,26.734c-0.774,0-1.001-0.239-1.001-0.902v-0.825c0-0.663,0.228-0.902,1.001-0.902h1.025
			c0.778,0,1.006,0.239,1.006,0.902v0.825c0,0.663-0.228,0.902-1.006,0.902H15.87z M17.316,25.034c0-0.328-0.101-0.424-0.443-0.424
			h-0.975c-0.37,0-0.447,0.096-0.447,0.424v0.776c0,0.343,0.077,0.424,0.447,0.424h0.975c0.343,0,0.443-0.081,0.443-0.424V25.034z"
			/>
		<path fill="#FFFFFF" d="M23.994,26.734v-2.628h0.585v2.628H23.994z"/>
		<path fill="#FFFFFF" d="M31.499,26.734c-0.774,0-1.001-0.239-1.001-0.902v-0.825c0-0.663,0.228-0.902,1.001-0.902h1.025
			c0.778,0,1.006,0.239,1.006,0.902v0.825c0,0.663-0.228,0.902-1.006,0.902H31.499z M32.945,25.034c0-0.328-0.101-0.424-0.443-0.424
			h-0.975c-0.37,0-0.447,0.096-0.447,0.424v0.776c0,0.343,0.077,0.424,0.447,0.424h0.975c0.343,0,0.443-0.081,0.443-0.424V25.034z"
			/>
		<path fill="#FFFFFF" d="M39.623,26.734v-2.628h0.585v2.628H39.623z"/>
		<path fill="#FFFFFF" d="M15.87,34.654c-0.774,0-1.001-0.239-1.001-0.902v-0.825c0-0.663,0.228-0.902,1.001-0.902h1.025
			c0.778,0,1.006,0.239,1.006,0.902v0.825c0,0.663-0.228,0.902-1.006,0.902H15.87z M17.316,32.955c0-0.328-0.101-0.424-0.443-0.424
			h-0.975c-0.37,0-0.447,0.096-0.447,0.424v0.776c0,0.343,0.077,0.424,0.447,0.424h0.975c0.343,0,0.443-0.081,0.443-0.424V32.955z"
			/>
		<path fill="#FFFFFF" d="M23.994,34.654v-2.628h0.585v2.628H23.994z"/>
		<path fill="#FFFFFF" d="M31.499,34.654c-0.774,0-1.001-0.239-1.001-0.902v-0.825c0-0.663,0.228-0.902,1.001-0.902h1.025
			c0.778,0,1.006,0.239,1.006,0.902v0.825c0,0.663-0.228,0.902-1.006,0.902H31.499z M32.945,32.955c0-0.328-0.101-0.424-0.443-0.424
			h-0.975c-0.37,0-0.447,0.096-0.447,0.424v0.776c0,0.343,0.077,0.424,0.447,0.424h0.975c0.343,0,0.443-0.081,0.443-0.424V32.955z"
			/>
		<path fill="#FFFFFF" d="M39.623,34.654v-2.628h0.585v2.628H39.623z"/>
	</g>
	<g>
		<path fill="#20C997" d="M170.387,36.456v-5.719h-10.513v5.719h-3.196V22.116h3.196v5.846h10.513v-5.846h3.175v14.339H170.387z"/>
		<path fill="#20C997" d="M198.906,36.456c-4.226,0-5.467-1.303-5.467-4.92v-9.42h3.175v9.293c0,1.661,0.547,2.312,2.565,2.312
			h8.515v2.734H198.906z"/>
		<path fill="#20C997" d="M209.39,36.456V22.116h3.196v14.339H209.39z"/>
		<path fill="#20C997" d="M233.379,36.456v-2.712h10.891c1.136,0,1.619-0.252,1.619-1.221v-0.778c0-0.903-0.483-1.239-1.599-1.239
			h-6.833c-3.217,0-4.059-1.178-4.059-3.638v-0.715c0-2.943,1.178-4.037,4.059-4.037h4.457v2.712h-4.163
			c-0.967,0-1.43,0.295-1.43,1.43v0.463c0,0.903,0.379,1.241,1.409,1.241h6.707c3.196,0,4.374,1.051,4.374,3.638v1.135
			c0,2.671-1.178,3.722-4.374,3.722H233.379z"/>
		<path fill="#343A40" d="M218.283,32.568c-0.073-0.306-0.1-0.686-0.1-1.159v-4.225c0-1.788,0.421-2.312,2.439-2.312h5.172
			c0.422,0,0.757,0.037,1.054,0.099l2.577-2.286c-0.833-0.39-1.967-0.568-3.505-0.568h-5.445c-4.226,0-5.467,1.303-5.467,4.92v4.5
			c0,1.454,0.216,2.518,0.73,3.29L218.283,32.568z"/>
		<path fill="#20C997" d="M228.086,26.047c0.086,0.305,0.126,0.677,0.126,1.137v4.225c0,1.872-0.547,2.312-2.418,2.312h-5.172
			c-0.443,0-0.797-0.027-1.098-0.079l-2.534,2.248c0.83,0.388,1.957,0.566,3.485,0.566h5.445c4.248,0,5.488-1.303,5.488-4.92v-4.5
			c0-1.453-0.216-2.517-0.73-3.289L228.086,26.047z"/>
		<rect x="176.183" y="22.116" fill="#343A40" width="15.246" height="2.786"/>
		<rect x="176.183" y="27.893" fill="#20C997" width="15.246" height="2.786"/>
		<rect x="176.183" y="33.67" fill="#20C997" width="15.246" height="2.786"/>
		<rect x="115.284" y="22.116" fill="#343A40" width="15.246" height="2.786"/>
		<rect x="115.284" y="27.893" fill="#20C997" width="15.246" height="2.786"/>
		<rect x="115.284" y="33.67" fill="#20C997" width="15.246" height="2.786"/>
		<!-- <g>
			<path fill="#343A40" d="M58.101,42.579v-2.36h-1.225v-0.561h3.105v0.561h-1.225v2.36H58.101z"/>
			<path fill="#343A40" d="M65.255,42.579v-1.293c0-0.39-0.107-0.48-0.501-0.48h-1.272v1.773h-0.638v-3.071h0.638v0.749h1.289
				c0.869,0,1.122,0.266,1.122,1.007v1.315H65.255z"/>
			<path fill="#343A40" d="M69.528,41.654v0.107c0,0.283,0.086,0.334,0.385,0.334h0.754v0.484h-0.754
				c-0.737,0-1.023-0.266-1.023-0.882v-0.535c0-0.677,0.236-0.904,1.053-0.904h1.122c0.664,0,0.848,0.266,0.848,0.634v0.762H69.528z
				 M71.275,40.943c0-0.154-0.069-0.192-0.261-0.192h-1.062c-0.321,0-0.424,0.034-0.424,0.368v0.125h1.747V40.943z"/>
			<path fill="#343A40" d="M79.04,42.579v-0.552h2.218c0.231,0,0.33-0.052,0.33-0.249v-0.158c0-0.184-0.098-0.253-0.325-0.253
				h-1.392c-0.655,0-0.827-0.24-0.827-0.741V40.48c0-0.6,0.24-0.822,0.827-0.822h0.908v0.552h-0.848
				c-0.197,0-0.291,0.06-0.291,0.291v0.094c0,0.184,0.077,0.253,0.287,0.253h1.366c0.651,0,0.891,0.214,0.891,0.74v0.231
				c0,0.544-0.24,0.758-0.891,0.758H79.04z"/>
			<path fill="#343A40" d="M86.207,42.579c-0.861,0-1.113-0.266-1.113-1.002v-0.313c0-0.741,0.252-1.007,1.113-1.007h0.775
				c0.865,0,1.118,0.266,1.118,1.011v0.308c0,0.736-0.253,1.002-1.118,1.002H86.207z M87.462,41.285c0-0.394-0.103-0.48-0.565-0.48
				h-0.604c-0.454,0-0.561,0.086-0.561,0.48v0.274c0,0.386,0.107,0.479,0.561,0.479h0.604c0.462,0,0.565-0.094,0.565-0.479V41.285z"
				/>
			<path fill="#343A40" d="M91.109,42.579v-2.445c0-0.467,0.244-0.625,0.745-0.625h0.741v0.454h-0.642
				c-0.158,0-0.206,0.043-0.206,0.193v0.103h0.844v0.518h-0.844v1.803H91.109z"/>
			<path fill="#343A40" d="M95.621,42.579v-1.803h-0.325v-0.518h0.325v-0.655h0.651v0.655h0.732v0.518h-0.732v1.803H95.621z"/>
			<path fill="#343A40" d="M101.945,40.981l-0.689,1.43c-0.069,0.142-0.184,0.231-0.356,0.231c-0.193,0-0.283-0.09-0.343-0.231
				l-0.929-2.154h0.647l0.668,1.563l0.664-1.388c0.077-0.154,0.163-0.24,0.351-0.24c0.18,0,0.274,0.077,0.347,0.24l0.629,1.388
				l0.702-1.563h0.634l-0.972,2.154c-0.06,0.133-0.18,0.231-0.351,0.231c-0.167,0-0.282-0.098-0.347-0.231L101.945,40.981z"/>
			<path fill="#343A40" d="M107.545,42.579c-0.668,0-0.848-0.236-0.848-0.612v-0.218c0-0.39,0.163-0.613,0.805-0.613h1.717v-0.051
				c0-0.295-0.111-0.373-0.394-0.373h-0.634v-0.454h0.634c0.741,0,1.032,0.266,1.032,0.857v0.565c0,0.672-0.236,0.899-1.058,0.899
				H107.545z M109.219,41.529h-1.649c-0.15,0-0.24,0.052-0.24,0.236v0.159c0,0.163,0.098,0.218,0.261,0.218h1.199
				c0.3,0,0.428-0.069,0.428-0.416V41.529z"/>
			<path fill="#343A40" d="M112.845,42.579v-1.345c0-0.694,0.304-0.976,1.088-0.976h0.415v0.518h-0.398
				c-0.356,0-0.467,0.094-0.467,0.463v1.34H112.845z"/>
			<path fill="#343A40" d="M117.807,41.654v0.107c0,0.283,0.086,0.334,0.385,0.334h0.754v0.484h-0.754
				c-0.737,0-1.023-0.266-1.023-0.882v-0.535c0-0.677,0.236-0.904,1.053-0.904h1.122c0.664,0,0.848,0.266,0.848,0.634v0.762H117.807
				z M119.554,40.943c0-0.154-0.069-0.192-0.261-0.192h-1.062c-0.321,0-0.424,0.034-0.424,0.368v0.125h1.747V40.943z"/>
			<path fill="#343A40" d="M128.039,41.482v1.096h-0.647V40.66c0-0.737,0.253-1.002,1.114-1.002h0.685v0.561h-0.668
				c-0.355,0-0.484,0.137-0.484,0.48v0.231h2.462v0.552H128.039z"/>
			<path fill="#343A40" d="M133.596,40.125c-0.158,0-0.218-0.06-0.218-0.197v-0.249c0-0.137,0.06-0.193,0.218-0.193h0.21
				c0.163,0,0.223,0.056,0.223,0.193v0.249c0,0.137-0.06,0.197-0.223,0.197H133.596z M133.377,42.579v-2.261h0.651v2.261H133.377z"
				/>
			<path fill="#343A40" d="M137.059,42.579v-1.345c0-0.694,0.304-0.976,1.088-0.976h0.415v0.518h-0.398
				c-0.356,0-0.467,0.094-0.467,0.463v1.34H137.059z"/>
			<path fill="#343A40" d="M145.118,42.579v-1.396c0-0.287-0.107-0.377-0.351-0.377h-0.416c-0.381,0-0.475,0.094-0.475,0.377v1.396
				h-0.561v-1.396c0-0.283-0.085-0.377-0.48-0.377h-0.407c-0.253,0-0.351,0.09-0.351,0.377v1.396h-0.621v-1.49
				c0-0.57,0.218-0.831,0.831-0.831h0.561c0.471,0,0.659,0.133,0.745,0.407c0.081-0.274,0.283-0.407,0.741-0.407h0.578
				c0.612,0,0.831,0.262,0.831,0.831v1.49H145.118z"/>
			<path fill="#343A40" d="M152.989,42.579v-2.921h0.651v2.921H152.989z"/>
			<path fill="#343A40" d="M159.035,42.579v-1.293c0-0.386-0.107-0.48-0.518-0.48h-0.694c-0.403,0-0.518,0.094-0.518,0.48v1.293
				h-0.638v-1.315c0-0.741,0.253-1.007,1.114-1.007h0.775c0.865,0,1.118,0.266,1.118,1.007v1.315H159.035z"/>
			<path fill="#343A40" d="M169.708,42.579v-1.165h-2.141v1.165h-0.651v-2.921h0.651v1.191h2.141v-1.191h0.647v2.921H169.708z"/>
			<path fill="#343A40" d="M174.486,42.579c-0.861,0-1.113-0.266-1.113-1.002v-1.319h0.642v1.302c0,0.394,0.133,0.475,0.522,0.475
				h0.668c0.415,0,0.522-0.081,0.522-0.475v-1.302h0.634v1.319c0,0.736-0.253,1.002-1.122,1.002H174.486z"/>
			<path fill="#343A40" d="M183.028,42.579v-1.396c0-0.287-0.107-0.377-0.351-0.377h-0.416c-0.381,0-0.475,0.094-0.475,0.377v1.396
				h-0.561v-1.396c0-0.283-0.085-0.377-0.48-0.377h-0.407c-0.253,0-0.351,0.09-0.351,0.377v1.396h-0.621v-1.49
				c0-0.57,0.219-0.831,0.831-0.831h0.561c0.471,0,0.659,0.133,0.745,0.407c0.081-0.274,0.283-0.407,0.741-0.407h0.578
				c0.612,0,0.831,0.262,0.831,0.831v1.49H183.028z"/>
			<path fill="#343A40" d="M187.462,42.579c-0.668,0-0.848-0.236-0.848-0.612v-0.218c0-0.39,0.163-0.613,0.805-0.613h1.717v-0.051
				c0-0.295-0.111-0.373-0.394-0.373h-0.634v-0.454h0.634c0.741,0,1.032,0.266,1.032,0.857v0.565c0,0.672-0.236,0.899-1.058,0.899
				H187.462z M189.137,41.529h-1.649c-0.15,0-0.24,0.052-0.24,0.236v0.159c0,0.163,0.098,0.218,0.261,0.218h1.199
				c0.3,0,0.428-0.069,0.428-0.416V41.529z"/>
			<path fill="#343A40" d="M195.139,42.579v-1.293c0-0.386-0.107-0.48-0.518-0.48h-0.694c-0.403,0-0.518,0.094-0.518,0.48v1.293
				h-0.638v-1.315c0-0.741,0.252-1.007,1.113-1.007h0.775c0.865,0,1.118,0.266,1.118,1.007v1.315H195.139z"/>
			<path fill="#343A40" d="M205.988,41.906h-2.021l-0.415,0.672h-0.749l1.696-2.698c0.103-0.167,0.227-0.287,0.492-0.287
				c0.261,0,0.385,0.12,0.488,0.287l1.687,2.698h-0.754L205.988,41.906z M204.271,41.405h1.413l-0.707-1.152L204.271,41.405z"/>
			<path fill="#343A40" d="M211.891,40.257c0.865,0,1.118,0.266,1.118,1.007v0.313c0,0.736-0.253,1.002-1.118,1.002h-1.293v0.694
				h-0.638v-2.008c0-0.741,0.253-1.007,1.118-1.007H211.891z M212.371,41.281c0-0.407-0.111-0.48-0.561-0.48h-0.711
				c-0.403,0-0.501,0.094-0.501,0.475v0.758h1.216c0.445,0,0.557-0.06,0.557-0.479V41.281z"/>
			<path fill="#343A40" d="M217.932,40.257c0.865,0,1.118,0.266,1.118,1.007v0.313c0,0.736-0.253,1.002-1.118,1.002h-1.293v0.694
				h-0.638v-2.008c0-0.741,0.253-1.007,1.118-1.007H217.932z M218.412,41.281c0-0.407-0.111-0.48-0.561-0.48h-0.711
				c-0.403,0-0.501,0.094-0.501,0.475v0.758h1.216c0.445,0,0.557-0.06,0.557-0.479V41.281z"/>
			<path fill="#343A40" d="M222.038,42.579v-1.345c0-0.694,0.304-0.976,1.088-0.976h0.415v0.518h-0.398
				c-0.356,0-0.467,0.094-0.467,0.463v1.34H222.038z"/>
			<path fill="#343A40" d="M227.475,42.579c-0.861,0-1.113-0.266-1.113-1.002v-0.313c0-0.741,0.252-1.007,1.113-1.007h0.775
				c0.865,0,1.118,0.266,1.118,1.011v0.308c0,0.736-0.253,1.002-1.118,1.002H227.475z M228.73,41.285c0-0.394-0.103-0.48-0.565-0.48
				h-0.604c-0.454,0-0.561,0.086-0.561,0.48v0.274c0,0.386,0.107,0.479,0.561,0.479h0.604c0.462,0,0.565-0.094,0.565-0.479V41.285z"
				/>
			<path fill="#343A40" d="M233.126,42.579c-0.668,0-0.848-0.236-0.848-0.612v-0.218c0-0.39,0.163-0.613,0.805-0.613h1.717v-0.051
				c0-0.295-0.111-0.373-0.394-0.373h-0.634v-0.454h0.634c0.741,0,1.032,0.266,1.032,0.857v0.565c0,0.672-0.236,0.899-1.058,0.899
				H233.126z M234.801,41.529h-1.649c-0.15,0-0.24,0.052-0.24,0.236v0.159c0,0.163,0.098,0.218,0.261,0.218h1.199
				c0.3,0,0.428-0.069,0.428-0.416V41.529z"/>
			<path fill="#343A40" d="M239.54,42.579c-0.861,0-1.113-0.266-1.113-1.002v-0.313c0-0.741,0.252-1.007,1.113-1.007h1.679v0.548
				h-1.657c-0.403,0-0.497,0.098-0.497,0.48v0.274c0,0.368,0.098,0.479,0.497,0.479h1.661v0.54H239.54z"/>
			<path fill="#343A40" d="M246.621,42.579v-1.293c0-0.39-0.107-0.48-0.501-0.48h-1.272v1.773h-0.638v-3.071h0.638v0.749h1.289
				c0.869,0,1.122,0.266,1.122,1.007v1.315H246.621z"/>
		</g> -->
		<path fill="#20C997" d="M70.505,36.455v-5.719H59.991v5.719h-3.196V22.114h3.196v5.846h10.514v-5.846h3.175v14.341H70.505z"/>
		<path fill="#20C997" d="M83.416,36.455v-6.771l-8.411-7.57h4.311l5.783,5.11l5.888-5.11h4.079l-8.453,7.612v6.729H83.416z"/>
		<path fill="#20C997" d="M99.608,32.354v4.101h-3.196V22.114h11.481c4.101,0,5.383,1.241,5.383,4.626v1.241
			c0,3.427-1.199,4.374-5.383,4.374H99.608z M110.08,26.866c0-1.556-0.547-1.998-2.271-1.998h-8.201v4.9h8.243
			c1.682,0,2.229-0.4,2.229-1.914V26.866z"/>
		<path fill="#20C997" d="M144.25,36.455l-8.39-5.215v5.215h-3.175V22.114h11.229c4.016,0,5.656,0.862,5.656,4.311v0.989
			c0,3.322-1.787,4.185-5.699,4.185h-2.523l8.411,4.857H144.25z M146.374,26.592c0-1.535-0.568-1.787-2.671-1.787h-7.843v4.374
			h7.843c2.061,0,2.671-0.252,2.671-1.808V26.592z"/>
	</g>
</g>
</svg>
